<svg width="20" height="20" viewBox="0 0 20 20" fill="none" xmlns="http://www.w3.org/2000/svg">
<path fill-rule="evenodd" clip-rule="evenodd" d="M15.8605 3H11.9535C11.6513 3 11.3614 3.12006 11.1477 3.33376C10.934 3.54747 10.814 3.83731 10.814 4.13953V8.04651C10.814 8.19616 10.8434 8.34434 10.9007 8.48259C10.958 8.62085 11.0419 8.74647 11.1477 8.85228C11.2535 8.9581 11.3792 9.04204 11.5174 9.0993C11.6557 9.15657 11.8038 9.18605 11.9535 9.18605H15.8605C16.0101 9.18605 16.1583 9.15657 16.2965 9.0993C16.4348 9.04204 16.5604 8.9581 16.6662 8.85228C16.7721 8.74647 16.856 8.62085 16.9133 8.48259C16.9705 8.34434 17 8.19616 17 8.04651V4.13953C17 3.83731 16.8799 3.54747 16.6662 3.33376C16.4525 3.12006 16.1627 3 15.8605 3Z" fill="white"/>
<path fill-rule="evenodd" clip-rule="evenodd" d="M4.13953 10.814H8.04651C8.19616 10.814 8.34434 10.8434 8.48259 10.9007C8.62085 10.958 8.74647 11.0419 8.85228 11.1477C8.9581 11.2535 9.04204 11.3792 9.0993 11.5174C9.15657 11.6557 9.18605 11.8038 9.18605 11.9535V15.8605C9.18605 16.0101 9.15657 16.1583 9.0993 16.2965C9.04204 16.4348 8.9581 16.5604 8.85228 16.6662C8.74647 16.7721 8.62085 16.856 8.48259 16.9133C8.34434 16.9705 8.19616 17 8.04651 17H4.13953C3.83731 17 3.54747 16.8799 3.33376 16.6662C3.12006 16.4525 3 16.1627 3 15.8605V11.9535C3 11.6513 3.12006 11.3614 3.33376 11.1477C3.54747 10.934 3.83731 10.814 4.13953 10.814Z" fill="white"/>
<path fill-rule="evenodd" clip-rule="evenodd" d="M8.04651 3H4.13953C3.83731 3 3.54747 3.12006 3.33376 3.33376C3.12006 3.54747 3 3.83731 3 4.13953V8.04651C3 8.19616 3.02947 8.34434 3.08674 8.48259C3.14401 8.62085 3.22795 8.74647 3.33376 8.85228C3.43958 8.9581 3.5652 9.04204 3.70345 9.0993C3.84171 9.15657 3.98989 9.18605 4.13953 9.18605H8.04651C8.19616 9.18605 8.34434 9.15657 8.48259 9.0993C8.62085 9.04204 8.74647 8.9581 8.85228 8.85228C8.9581 8.74647 9.04204 8.62085 9.0993 8.48259C9.15657 8.34434 9.18605 8.19616 9.18605 8.04651V4.13953C9.18605 3.98989 9.15657 3.84171 9.0993 3.70345C9.04204 3.5652 8.9581 3.43958 8.85228 3.33376C8.74647 3.22795 8.62085 3.14401 8.48259 3.08674C8.34434 3.02947 8.19616 3 8.04651 3Z" fill="white"/>
<path fill-rule="evenodd" clip-rule="evenodd" d="M11.9535 10.814H15.8605C16.1627 10.814 16.4525 10.934 16.6662 11.1477C16.8799 11.3614 17 11.6513 17 11.9535V15.8605C17 16.1627 16.8799 16.4525 16.6662 16.6662C16.4525 16.8799 16.1627 17 15.8605 17H11.9535C11.6513 17 11.3614 16.8799 11.1477 16.6662C10.934 16.4525 10.814 16.1627 10.814 15.8605V11.9535C10.814 11.6513 10.934 11.3614 11.1477 11.1477C11.3614 10.934 11.6513 10.814 11.9535 10.814Z" fill="white"/>
</svg>
