<svg width="20" height="20" viewBox="0 0 20 20" fill="none" xmlns="http://www.w3.org/2000/svg">
<path d="M17 4.04255V11.7872C17 12.0637 16.8902 12.3289 16.6946 12.5244C16.4991 12.7199 16.2339 12.8298 15.9574 12.8298H7.50457L8.52851 13.8545C8.57241 13.8954 8.60762 13.9447 8.63204 13.9995C8.65646 14.0543 8.66959 14.1135 8.67065 14.1735C8.67171 14.2335 8.66067 14.2931 8.6382 14.3487C8.61573 14.4043 8.58228 14.4549 8.53985 14.4973C8.49742 14.5397 8.44689 14.5732 8.39125 14.5956C8.33561 14.6181 8.27602 14.6292 8.21603 14.6281C8.15604 14.627 8.09687 14.6139 8.04206 14.5895C7.98725 14.5651 7.93793 14.5299 7.89702 14.486L6.10979 12.6987C6.02611 12.6149 5.97912 12.5014 5.97912 12.383C5.97912 12.2646 6.02611 12.151 6.10979 12.0672L7.89702 10.28C7.98172 10.2011 8.09375 10.1581 8.2095 10.1602C8.32526 10.1622 8.4357 10.2091 8.51756 10.2909C8.59942 10.3728 8.64632 10.4833 8.64836 10.599C8.6504 10.7148 8.60743 10.8268 8.52851 10.9115L7.50457 11.9362H15.9574C15.9969 11.9362 16.0348 11.9205 16.0628 11.8925C16.0907 11.8646 16.1064 11.8267 16.1064 11.7872V4.04255C16.1064 4.00305 16.0907 3.96517 16.0628 3.93724C16.0348 3.90931 15.9969 3.89362 15.9574 3.89362H7.61702C7.57752 3.89362 7.53964 3.90931 7.51171 3.93724C7.48378 3.96517 7.46808 4.00305 7.46808 4.04255V4.6383C7.46808 4.7568 7.42101 4.87045 7.33722 4.95424C7.25342 5.03803 7.13978 5.08511 7.02128 5.08511C6.90278 5.08511 6.78913 5.03803 6.70534 4.95424C6.62154 4.87045 6.57447 4.7568 6.57447 4.6383V4.04255C6.57447 3.76605 6.68431 3.50087 6.87982 3.30536C7.07534 3.10984 7.34052 3 7.61702 3H15.9574C16.2339 3 16.4991 3.10984 16.6946 3.30536C16.8902 3.50087 17 3.76605 17 4.04255ZM12.9787 14.9149C12.8602 14.9149 12.7466 14.962 12.6628 15.0458C12.579 15.1296 12.5319 15.2432 12.5319 15.3617V15.9574C12.5319 15.9969 12.5162 16.0348 12.4883 16.0628C12.4604 16.0907 12.4225 16.1064 12.383 16.1064H4.04255C4.00305 16.1064 3.96517 16.0907 3.93724 16.0628C3.90931 16.0348 3.89362 15.9969 3.89362 15.9574V8.21277C3.89362 8.17327 3.90931 8.13538 3.93724 8.10745C3.96517 8.07952 4.00305 8.06383 4.04255 8.06383H12.4954L11.4715 9.08851C11.4276 9.12942 11.3924 9.17874 11.368 9.23355C11.3435 9.28836 11.3304 9.34753 11.3293 9.40752C11.3283 9.46751 11.3393 9.5271 11.3618 9.58274C11.3843 9.63837 11.4177 9.68891 11.4601 9.73134C11.5026 9.77377 11.5531 9.80722 11.6088 9.82969C11.6644 9.85216 11.724 9.8632 11.784 9.86214C11.844 9.86108 11.9031 9.84795 11.9579 9.82353C12.0127 9.79911 12.0621 9.7639 12.103 9.72L13.8902 7.93277C13.9739 7.84899 14.0209 7.73543 14.0209 7.61702C14.0209 7.49862 13.9739 7.38505 13.8902 7.30128L12.103 5.51404C12.0183 5.43512 11.9063 5.39215 11.7905 5.39419C11.6747 5.39624 11.5643 5.44313 11.4824 5.52499C11.4006 5.60685 11.3537 5.7173 11.3516 5.83305C11.3496 5.9488 11.3926 6.06083 11.4715 6.14553L12.4954 7.17021H4.04255C3.76605 7.17021 3.50087 7.28005 3.30536 7.47557C3.10984 7.67109 3 7.93626 3 8.21277V15.9574C3 16.2339 3.10984 16.4991 3.30536 16.6946C3.50087 16.8902 3.76605 17 4.04255 17H12.383C12.6595 17 12.9247 16.8902 13.1202 16.6946C13.3157 16.4991 13.4255 16.2339 13.4255 15.9574V15.3617C13.4255 15.2432 13.3785 15.1296 13.2947 15.0458C13.2109 14.962 13.0972 14.9149 12.9787 14.9149Z" fill="white"/>
</svg>
